<svg xmlns="http://www.w3.org/2000/svg" viewBox="0 0 64 64" role="img" aria-labelledby="title desc">
  <title>Hanilies Cakeshoppe favicon</title>
  <desc>A gold letter H above a stylized cake on a dark circular background.</desc>
  <circle cx="32" cy="32" r="30" fill="#3b2416"/>
  <path d="M18 38c0-4 3.1-7 7-7h14c3.9 0 7 3 7 7v2H18z" fill="#f7d9a6"/>
  <path d="M21 40h22v7c0 1.7-1.3 3-3 3H24c-1.7 0-3-1.3-3-3z" fill="#fff7ec"/>
  <path d="M28 26c0-2.2 1.8-4 4-4s4 1.8 4 4c0 1.2-.5 2.2-1.3 3h-5.4c-.8-.8-1.3-1.8-1.3-3z" fill="#f4b183"/>
  <path d="M30 14h4v18h-4z" fill="#f7d9a6"/>
  <path d="M22 14h6v5h8v-5h6v18h-6v-7h-8v7h-6z" fill="#d4af37"/>
</svg>
